<svg version="1.1" id="Layer_1" xmlns="http://www.w3.org/2000/svg" xmlns:xlink="http://www.w3.org/1999/xlink" x="0px" y="0px"
	 width="100%" viewBox="0 0 1024 544" enable-background="new 0 0 1024 544" xml:space="preserve">
<path fill="#000000" opacity="1.000000" stroke="none" 
	d="
M551.000122,370.665466 
	C582.328613,370.669922 613.157043,370.679047 643.985535,370.676727 
	C652.401611,370.676117 654.700012,368.420624 654.702881,360.098816 
	C654.716309,321.271606 654.631714,282.444000 654.815430,243.617661 
	C654.838806,238.674194 653.586121,237.018982 648.413696,237.033768 
	C589.256897,237.202927 530.099426,237.136765 470.942108,237.145065 
	C463.336853,237.146118 463.325806,237.176666 463.319031,244.955261 
	C463.302948,263.452332 463.204437,281.950165 463.356903,300.445923 
	C463.393921,304.936920 462.552612,306.529999 457.425842,305.710083 
	C421.229645,299.921295 386.514282,328.718689 385.089905,365.278320 
	C384.790039,372.975128 385.837616,380.477814 387.656799,387.811096 
	C372.265045,394.193939 353.459534,381.454681 353.019562,364.159668 
	C352.532379,345.008636 352.541382,325.826050 353.045288,306.675903 
	C353.345551,295.265045 359.124329,286.586975 369.199188,280.753418 
	C392.841919,267.063782 416.341278,253.126266 440.008514,239.479584 
	C443.620636,237.396805 445.092865,235.084091 445.053589,230.835907 
	C444.842529,208.008163 444.905701,185.177429 444.956940,162.347931 
	C444.975281,154.189285 447.330231,146.898895 453.720459,141.370422 
	C457.883514,137.768753 462.648895,135.624496 468.256348,135.626129 
	C474.421936,135.627930 480.587524,135.613419 486.753082,135.592499 
	C538.739746,135.416183 590.726379,135.234268 642.713074,135.062775 
	C647.211426,135.047943 651.748779,135.036972 656.053284,136.509476 
	C666.748962,140.168274 673.079041,149.643204 673.090271,162.124756 
	C673.128845,204.951263 673.100952,247.777847 673.096313,290.604401 
	C673.093750,314.267303 673.108521,337.930237 673.072937,361.593109 
	C673.055237,373.351807 668.072571,382.106537 657.186646,387.088959 
	C653.484314,388.783447 649.451599,389.063019 645.449707,389.066711 
	C601.956665,389.106659 558.463501,389.071198 514.970642,389.169830 
	C510.857452,389.179138 509.357788,387.906494 510.828033,383.887421 
	C511.113007,383.108521 511.308655,382.290588 511.477417,381.476501 
	C513.717163,370.671570 513.714172,370.671021 525.005615,370.669525 
	C533.503784,370.668396 542.001892,370.667084 551.000122,370.665466 
M463.305237,201.496643 
	C463.305145,203.495743 463.284332,205.495102 463.308289,207.493912 
	C463.463104,220.413223 461.699097,218.630905 474.406433,218.646103 
	C532.379089,218.715485 590.352112,218.635025 648.324402,218.808136 
	C653.416504,218.823334 654.900208,217.283142 654.816406,212.264160 
	C654.538147,195.609909 654.739319,178.948120 654.684692,162.289444 
	C654.664734,156.195801 651.976990,153.537643 645.853149,153.364639 
	C642.856995,153.279984 639.856445,153.353836 636.857849,153.354095 
	C582.550110,153.358780 528.242371,153.352463 473.934631,153.378723 
	C465.438141,153.382828 463.325684,155.550354 463.313416,164.014847 
	C463.295776,176.175781 463.306641,188.336761 463.305237,201.496643 
z"/>
<path fill="#000000" opacity="1.000000" stroke="none" 
	d="
M467.102570,315.651001 
	C489.825897,324.555206 503.315033,340.765411 505.001343,364.743652 
	C506.734406,389.386841 495.522491,408.094879 473.500000,419.164062 
	C439.407959,436.299744 397.506531,413.810181 392.830658,376.439240 
	C387.624756,334.832031 426.682526,302.647583 467.102570,315.651001 
M433.738708,403.790192 
	C438.670319,406.063660 443.852448,406.861511 449.270325,406.791504 
	C464.892914,406.589569 478.827423,397.087372 484.560791,382.558380 
	C490.169067,368.346405 486.546570,351.976929 475.405121,341.185455 
	C464.438599,330.563416 447.697449,327.411926 433.741211,333.685211 
	C419.181610,340.229706 411.018127,351.852661 410.559479,367.610321 
	C410.080444,384.069946 418.229980,396.126068 433.738708,403.790192 
z"/>
<path fill="#000000" opacity="1.000000" stroke="none" 
	d="
M399.086853,214.845840 
	C406.554413,219.158783 413.704315,223.290314 422.264313,228.236649 
	C407.116028,237.077682 393.136993,245.236298 378.193665,253.957703 
	C378.193665,236.449341 378.193665,220.303879 378.193665,202.823395 
	C385.460999,207.005676 392.115112,210.835052 399.086853,214.845840 
z"/>
<path fill="#000000" opacity="1.000000" stroke="none" 
	d="
M575.013062,341.887268 
	C575.434143,346.625397 573.597229,348.324707 569.223755,348.167511 
	C561.906860,347.904449 554.571716,347.935120 547.249756,348.094452 
	C541.824402,348.212494 542.767944,344.482147 542.692932,341.241394 
	C542.617188,337.973114 542.325562,334.769104 547.269043,334.892609 
	C554.423462,335.071411 561.586243,334.910004 568.745422,334.908936 
	C574.913086,334.908051 575.101807,335.113831 575.013062,341.887268 
z"/>
<path fill="#000000" opacity="1.000000" stroke="none" 
	d="
M550.076416,272.327454 
	C543.307922,272.256653 540.351746,267.398285 542.984375,261.586182 
	C543.768921,259.854126 545.233032,259.785217 546.718567,259.779266 
	C554.852112,259.746826 562.985962,259.791443 571.119385,259.748596 
	C575.969543,259.723053 575.048096,263.251892 575.035706,266.100250 
	C575.023254,268.961121 575.846985,272.419250 570.983887,272.339752 
	C564.179993,272.228516 557.372803,272.321625 550.076416,272.327454 
z"/>
<path fill="#000000" opacity="1.000000" stroke="none" 
	d="
M609.085938,297.699341 
	C616.069824,297.703583 622.571838,297.858643 629.063293,297.663086 
	C633.895630,297.517517 633.348999,300.754822 633.268494,303.725006 
	C633.188049,306.694031 634.351746,310.428680 629.082214,310.332153 
	C621.421143,310.191833 613.748962,310.106018 606.094421,310.370056 
	C601.549316,310.526825 600.776245,308.199066 600.979431,304.492828 
	C601.170288,301.013824 600.435242,297.004486 606.102234,297.689911 
	C606.923035,297.789185 607.766541,297.701080 609.085938,297.699341 
z"/>
<path fill="#000000" opacity="1.000000" stroke="none" 
	d="
M551.307617,305.420288 
	C550.681519,300.321381 552.914612,297.326172 557.341980,296.208801 
	C560.850037,295.323395 563.461548,297.134674 565.201599,300.110870 
	C567.158508,303.458038 566.332275,306.501984 563.836365,309.213287 
	C560.747131,312.569183 553.226318,312.078918 551.307617,305.420288 
z"/>
<path fill="#000000" opacity="1.000000" stroke="none" 
	d="
M620.571899,171.529816 
	C621.144287,173.696442 621.658264,175.455521 622.047974,177.241730 
	C622.428528,178.986008 622.964844,180.474442 625.139587,180.482452 
	C627.351807,180.490601 627.840027,178.767014 628.306030,177.194153 
	C628.966919,174.963898 629.486084,172.686081 629.955261,170.405853 
	C630.735962,166.611649 633.491028,166.337830 636.466370,166.863235 
	C640.504395,167.576294 638.127991,170.362061 638.038513,172.378494 
	C637.898010,175.544800 634.196960,179.022598 639.540283,181.721649 
	C641.088867,182.503891 640.983215,186.490677 638.311890,186.895645 
	C633.787903,187.581482 633.451599,190.747833 632.645508,193.961288 
	C631.956909,196.706436 631.100525,199.413651 630.513916,202.179108 
	C629.943359,204.868973 628.559998,206.175583 625.708435,206.173187 
	C622.840332,206.170776 621.172607,205.279388 620.305603,202.256027 
	C618.951782,197.534851 618.770752,192.418427 615.643860,187.351654 
	C612.559998,192.064407 612.319946,197.073364 611.105408,201.690826 
	C610.242798,204.970367 608.658020,206.508286 605.155762,206.195999 
	C602.610840,205.969055 601.221924,204.930939 600.711548,202.388474 
	C600.057922,199.132355 599.312561,195.878738 598.331421,192.709259 
	C597.526978,190.110550 597.063599,187.340729 593.128540,187.031036 
	C590.319641,186.809952 589.582275,182.371536 592.220703,181.079636 
	C595.445374,179.500702 594.474609,177.625504 593.866577,175.357498 
	C593.187134,172.822876 592.094055,170.313156 592.870789,167.608612 
	C599.216064,165.808182 600.064514,166.296219 601.459290,172.392471 
	C601.903931,174.335800 602.388733,176.271713 602.922668,178.192230 
	C603.326233,179.643906 604.281921,180.378616 605.867981,180.337814 
	C607.389832,180.298615 608.397400,179.762512 608.778381,178.190262 
	C609.326721,175.927353 610.084900,173.707748 610.509216,171.424271 
	C611.009155,168.734390 611.779663,166.752792 615.137207,166.688416 
	C618.425903,166.625336 620.199768,167.834564 620.571899,171.529816 
z"/>
<path fill="#000000" opacity="1.000000" stroke="none" 
	d="
M461.846985,345.930054 
	C471.121857,351.969360 475.971466,360.203979 475.053375,370.924255 
	C474.198578,380.904877 469.083282,388.447174 459.629578,392.538483 
	C447.980133,397.580017 435.336212,394.364807 427.838348,384.552856 
	C420.713898,375.229553 420.862030,362.115417 428.200287,352.506714 
	C435.238098,343.291351 447.983063,340.070496 459.269104,344.667145 
	C460.038300,344.980438 460.769867,345.386169 461.846985,345.930054 
M460.558899,370.914124 
	C461.069977,365.669861 459.469086,361.292664 454.792633,358.606445 
	C450.336517,356.046814 445.785553,356.449188 441.656158,359.492706 
	C437.794861,362.338715 436.599396,366.375946 437.284576,370.995300 
	C438.012909,375.905762 442.389557,379.972015 447.462708,380.591125 
	C452.833099,381.246490 457.493073,378.024994 460.558899,370.914124 
z"/>
</svg>