<svg xmlns="http://www.w3.org/2000/svg" viewBox="0 0 64 64" fill="none">
  <defs>
    <linearGradient id="bg" x1="10" y1="6" x2="54" y2="58" gradientUnits="userSpaceOnUse">
      <stop stop-color="#38BDF8" />
      <stop offset="1" stop-color="#2563EB" />
    </linearGradient>
  </defs>
  <rect x="4" y="4" width="56" height="56" rx="16" fill="url(#bg)" />
  <path d="M22 22.5C22.7 20.5 24.6 19 26.8 19H37.2C39.4 19 41.3 20.5 42 22.5L44.7 30H19.3L22 22.5Z" fill="white" />
  <path d="M16 31.5C16 29.6 17.6 28 19.5 28H44.5C46.4 28 48 29.6 48 31.5V39.5C48 41.4 46.4 43 44.5 43H19.5C17.6 43 16 41.4 16 39.5V31.5Z" fill="white" />
  <rect x="22" y="23" width="20" height="7" rx="3.5" fill="#BFDBFE" />
  <circle cx="22.5" cy="43" r="5.5" fill="#0F172A" />
  <circle cx="41.5" cy="43" r="5.5" fill="#0F172A" />
  <circle cx="22.5" cy="43" r="2.5" fill="white" />
  <circle cx="41.5" cy="43" r="2.5" fill="white" />
  <path d="M27 47.5H37" stroke="#DBEAFE" stroke-width="3" stroke-linecap="round" />
  <circle cx="46.5" cy="18.5" r="8.5" fill="#FDE68A" />
  <path d="M46.5 14V23" stroke="#1E3A8A" stroke-width="2.5" stroke-linecap="round" />
  <path d="M42 18.5H51" stroke="#1E3A8A" stroke-width="2.5" stroke-linecap="round" />
</svg>
